<svg width="131" height="35" viewBox="0 0 131 35" fill="none" xmlns="http://www.w3.org/2000/svg">
<path d="M16.664 33.904C13.528 33.904 10.712 33.28 8.216 32.032C5.752 30.752 3.8 28.864 2.36 26.368C0.92 23.84 0.2 20.752 0.2 17.104C0.2 14.16 0.872 11.408 2.216 8.848C3.56 6.288 5.416 4.24 7.784 2.704C10.152 1.168 12.808 0.399998 15.752 0.399998C18.536 0.399998 21.016 0.927998 23.192 1.984C25.368 3.008 27.048 4.416 28.232 6.208C29.448 8 30.056 10 30.056 12.208C30.056 13.616 29.64 14.832 28.808 15.856C28.008 16.88 26.856 17.392 25.352 17.392C24.232 17.392 23.368 17.2 22.76 16.816C22.152 16.432 21.512 15.84 20.84 15.04C20.168 14.24 19.512 13.648 18.872 13.264C18.264 12.848 17.368 12.64 16.184 12.64C14.68 12.64 13.384 13.216 12.296 14.368C11.24 15.488 10.712 16.864 10.712 18.496C10.712 20.256 11.16 21.744 12.056 22.96C12.984 24.144 14.232 24.736 15.8 24.736C17.016 24.736 17.976 24.56 18.68 24.208C19.416 23.856 20.184 23.344 20.984 22.672C21.656 22.096 22.264 21.664 22.808 21.376C23.384 21.088 24.088 20.944 24.92 20.944C26.2 20.944 27.208 21.344 27.944 22.144C28.68 22.912 29.048 23.92 29.048 25.168C29.048 26.64 28.504 28.048 27.416 29.392C26.36 30.736 24.888 31.824 23 32.656C21.112 33.488 19 33.904 16.664 33.904ZM48.4565 34C44.8725 34 41.8005 33.2 39.2405 31.6C36.6805 29.968 34.7445 27.808 33.4325 25.12C32.1525 22.4 31.5125 19.44 31.5125 16.24C31.5125 11.824 32.0245 8.08 33.0485 5.008C34.0725 1.936 36.0725 0.399998 39.0485 0.399998C41.3845 0.399998 43.0645 1.088 44.0885 2.464C45.1125 3.84 45.6245 5.536 45.6245 7.552C45.6245 8.896 45.4965 10.464 45.2405 12.256C44.9845 13.984 44.8565 15.44 44.8565 16.624C44.8565 18.192 45.1285 19.536 45.6725 20.656C46.2165 21.776 47.1445 22.336 48.4565 22.336C49.8005 22.336 50.7285 21.776 51.2405 20.656C51.7845 19.536 52.0565 18.192 52.0565 16.624C52.0565 15.44 51.9285 13.984 51.6725 12.256C51.4165 10.464 51.2885 8.896 51.2885 7.552C51.2885 5.536 51.8005 3.84 52.8245 2.464C53.8485 1.088 55.5285 0.399998 57.8645 0.399998C60.8405 0.399998 62.8405 1.936 63.8645 5.008C64.8885 8.08 65.4005 11.824 65.4005 16.24C65.4005 19.44 64.7445 22.4 63.4325 25.12C62.1525 27.808 60.2325 29.968 57.6725 31.6C55.1125 33.2 52.0405 34 48.4565 34ZM96.0403 13.984C96.0403 16.32 95.6883 18.384 94.9843 20.176C94.3123 21.968 93.3523 23.472 92.1042 24.688C93.1603 26.32 93.6883 27.904 93.6883 29.44C93.6883 30.752 93.1763 31.84 92.1523 32.704C91.1603 33.568 90.0243 34 88.7443 34C88.0083 34 87.3363 33.888 86.7283 33.664C86.1203 33.44 85.4643 33.056 84.7603 32.512C84.1523 32.032 83.5763 31.376 83.0323 30.544C82.4883 29.712 82.0563 28.848 81.7363 27.952C80.6803 27.824 79.6243 27.552 78.5683 27.136C78.7603 28.16 78.8563 28.944 78.8563 29.488C78.8563 32.528 77.2723 34.048 74.1043 34.048C71.4483 34.048 69.5763 32.496 68.4883 29.392C67.4003 26.288 66.8563 22.496 66.8563 18.016C66.8563 14.976 67.4003 12.128 68.4883 9.472C69.6083 6.784 71.3043 4.624 73.5763 2.992C75.8483 1.328 78.6163 0.495999 81.8803 0.495999C84.5043 0.495999 86.8883 1.056 89.0323 2.176C91.1763 3.264 92.8723 4.832 94.1203 6.88C95.4003 8.928 96.0403 11.296 96.0403 13.984ZM78.0883 16.24C78.0883 17.328 78.5203 18.288 79.3843 19.12C80.2483 19.92 81.2403 20.32 82.3603 20.32C83.5123 20.32 84.5043 19.92 85.3363 19.12C86.2003 18.288 86.6323 17.328 86.6323 16.24C86.6323 15.12 86.2003 14.16 85.3363 13.36C84.5043 12.528 83.5123 12.112 82.3603 12.112C81.2403 12.112 80.2483 12.528 79.3843 13.36C78.5203 14.192 78.0883 15.152 78.0883 16.24ZM113.881 34.048C110.969 34.08 108.265 33.36 105.769 31.888C103.305 30.416 101.321 28.4 99.8165 25.84C98.3445 23.248 97.5765 20.384 97.5125 17.248C97.4805 14.24 98.1845 11.456 99.6245 8.896C101.065 6.336 103.049 4.304 105.577 2.8C108.105 1.264 110.873 0.495999 113.881 0.495999C116.825 0.463998 119.545 1.2 122.041 2.704C124.569 4.208 126.569 6.272 128.041 8.896C129.513 11.52 130.249 14.416 130.249 17.584C130.249 20.56 129.513 23.296 128.041 25.792C126.569 28.288 124.569 30.272 122.041 31.744C119.545 33.216 116.825 33.984 113.881 34.048ZM114.025 24.688C115.497 24.688 116.745 24.16 117.769 23.104C118.825 22.048 119.337 20.672 119.305 18.976C119.305 17.248 118.793 15.856 117.769 14.8C116.745 13.744 115.497 13.216 114.025 13.216C112.553 13.216 111.305 13.744 110.281 14.8C109.257 15.856 108.745 17.248 108.745 18.976C108.745 20.672 109.257 22.048 110.281 23.104C111.305 24.16 112.553 24.688 114.025 24.688Z" fill="black"/>
</svg>
